#!OML:ASF I:\salsa\salsa 7_09\Patient 1\Session 1\dancerfemale.ASF
:FULLY-SPECIFIED
:DEGREES
2334
root -6.52754 16.2357 9.97722 -842.973 800.048 580.436
lowerback 2.7038 1.71729 7.04514
upperback -12.3751 3.59066 -0.976192
thorax -14.7656 1.04714 -5.62196
lowerneck 0.68664 1.29956 -9.43378
upperneck 8.38263 1.44795 8.67572
head 2.22006 0.747157 4.19672
rclavicle -2.97183e-014 1.59028e-014
rhumerus -54.0054 12.9267 -102.154
rradius 99.3618
rwrist -6.18214
rhand -4.1022 65.9531
rfingers 7.12502
rthumb 21.6558 397.144
lclavicle -2.97183e-014 1.59028e-014
lhumerus -17.9982 0.00141683 91.0351
lradius 82.7307
lwrist -7.89465
lhand -27.1326 40.3852
lfingers 7.12502
lthumb -0.548169 790.364
rfemur -7.69678 -12.4946 21.3998
rtibia 18.6433
rfoot -10.7134 -7.76225
rtoes -28.8251
lfemur -40.7495 -5.13071 -9.87016
ltibia 57.8253
lfoot -25.3901 -6.89813
ltoes -50.2412
2335
root -6.4786 16.2155 10.0595 -849.81 797.284 573.418
lowerback 2.6712 1.81451 7.41347
upperback -12.4663 3.85082 -0.593914
thorax -14.837 1.16922 -5.43968
lowerneck 0.99299 0.459565 -10.4226
upperneck 7.80419 0.296784 9.0032
head 2.10208 0.144574 4.44029
rclavicle -1.53064e-014 -1.35174e-014
rhumerus -53.0864 13.2185 -103.53
rradius 98.8917
rwrist -5.68578
rhand -4.29047 65.873
rfingers 7.12502
rthumb 21.475 397.043
lclavicle -1.53064e-014 -1.35174e-014
lhumerus -16.7314 -1.39007 92.7709
lradius 81.4733
lwrist -8.33863
lhand -26.4869 40.2111
lfingers 7.12502
lthumb 0.0755036 790.191
rfemur -6.29816 -14.4195 22.9486
rtibia 16.7589
rfoot -10.5702 -7.77932
rtoes -28.9285
lfemur -42.6518 -2.89917 -10.3823
ltibia 57.5711
lfoot -26.4436 -6.3976
ltoes -48.6007
2336
root -6.41866 16.1867 10.1223 -855.054 794.387 568.397
lowerback 2.95075 1.82851 7.85447
upperback -12.5135 4.01117 -0.327533
thorax -15.0623 1.21235 -5.43227
lowerneck 1.93877 -0.298162 -10.7948
upperneck 6.84081 -0.777061 8.9677
head 1.77169 -0.421285 4.46984
rclavicle -9.0447e-015 2.46493e-014
rhumerus -52.279 13.318 -105.152
rradius 97.9825
rwrist -5.25555
rhand -4.32135 65.6349
rfingers 7.12502
rthumb 21.4453 396.802
lclavicle -9.0447e-015 2.46493e-014
lhumerus -15.9305 -3.04432 94.1505
lradius 80.2458
lwrist -8.92524
lhand -25.9244 40.3579
lfingers 7.12502
lthumb 0.618714 790.337
rfemur -4.58396 -16.3578 24.1569
rtibia 15.1886
rfoot -10.4796 -7.74638
rtoes -28.7876
lfemur -44.1113 -1.98683 -10.8871
ltibia 56.7789
lfoot -27.3447 -5.50675
ltoes -47.0434
2337
root -6.35616 16.1399 10.1628 -858.684 791.464 565.015
lowerback 3.13461 1.77327 8.48437
upperback -12.5329 4.08288 -0.109916
thorax -15.1979 1.19128 -5.56401
lowerneck 2.74377 -1.01442 -10.6128
upperneck 5.98412 -1.76311 8.4151
head 1.48432 -0.93502 4.25844
rclavicle 4.77083e-014 3.33958e-014
rhumerus -51.5748 13.5487 -106.744
rradius 96.7488
rwrist -4.59961
rhand -4.15917 65.6261
rfingers 7.12502
rthumb 21.6011 396.811
lclavicle 4.77083e-014 3.33958e-014
lhumerus -15.3277 -4.71375 95.1066
lradius 79.1142
lwrist -9.33981
lhand -24.9235 40.4769
lfingers 7.12502
lthumb 1.58543 790.451
rfemur -3.14078 -18.5696 25.2066
rtibia 14.0378
rfoot -10.2768 -7.3363
rtoes -29.0776
lfemur -45.536 -1.44901 -11.4048
ltibia 55.7865
lfoot -28.2772 -5.00855
ltoes -45.8571
2338
root -6.28728 16.0922 10.1827 -861.369 788.475 562.673
lowerback 3.40777 1.69076 9.30455
upperback -12.4878 4.14618 0.139239
thorax -15.3115 1.14517 -5.76614
lowerneck 2.86759 -1.76604 -10.571
upperneck 5.69006 -2.75224 7.81918
head 1.4682 -1.43994 4.05815
rclavicle 2.23633e-014 1.70955e-014
rhumerus -50.9219 13.8503 -108.087
rradius 95.217
rwrist -3.71358
rhand -3.8866 65.5242
rfingers 7.12502
rthumb 21.8629 396.739
lclavicle 2.23633e-014 1.70955e-014
lhumerus -14.7692 -6.40778 95.9832
lradius 77.9897
lwrist -9.94825
lhand -23.6357 40.6288
lfingers 7.12502
lthumb 2.82918 790.59
rfemur -1.76428 -19.5828 26.3505
rtibia 13.1334
rfoot -10.0358 -8.34217
rtoes -29.4129
lfemur -46.799 -1.33064 -11.8252
ltibia 54.5479
lfoot -28.3455 -5.26242
ltoes -44.2658
2339
root -6.18806 16.0497 10.1926 -864.614 785.722 560
lowerback 3.53021 1.6713 9.46583
upperback -12.2242 4.15184 0.326651
thorax -15.0677 1.16431 -5.64171
lowerneck 2.86817 -2.58864 -10.7268
upperneck 5.44029 -3.83896 7.42915
head 1.49407 -1.99176 3.94913
rclavicle -2.40032e-014 -1.59028e-015
rhumerus -50.2644 14.0739 -108.87
rradius 93.3885
rwrist -2.40113
rhand -4.49074 65.5272
rfingers 7.12502
rthumb 21.2826 396.676
lclavicle -2.40032e-014 -1.59028e-015
lhumerus -14.137 -8.42194 96.9247
lradius 76.7872
lwrist -10.4082
lhand -23.0344 40.6848
lfingers 7.12502
lthumb 3.40986 790.637
rfemur -0.204858 -19.3345 27.0652
rtibia 12.6941
rfoot -10.3041 -10.7507
rtoes -29.3512
lfemur -47.3809 -1.31936 -12.8497
ltibia 53.2733
lfoot -28.0099 -5.88366
ltoes -43.36
2340
root -6.06383 16.0171 10.1854 -868.234 783.124 557.116
lowerback 3.44645 1.6515 8.8996
upperback -11.7896 4.02912 0.613528
thorax -14.5219 1.23061 -4.96497
lowerneck 2.87408 -3.45512 -10.9773
upperneck 5.02972 -4.96023 6.65119
head 1.62238 -2.57687 4.1433
rclavicle 3.10601e-014 2.38542e-014
rhumerus -49.7452 14.2805 -108.976
rradius 91.3483
rwrist -1.30737
rhand -4.69654 65.6968
rfingers 7.12502
rthumb 21.085 396.823
lclavicle 3.10601e-014 2.38542e-014
lhumerus -13.3732 -10.4149 98.0649
lradius 75.4862
lwrist -10.8007
lhand -23.5458 40.7319
lfingers 7.12502
lthumb 2.91598 790.692
rfemur 1.42674 -18.1923 27.4565
rtibia 12.7726
rfoot -10.8835 -14.1107
rtoes -29.2408
lfemur -47.3761 -1.38276 -14.4031
ltibia 52.085
lfoot -26.9581 -6.94627
ltoes -39.6271
2341
root -5.93036 15.9816 10.1541 -871.641 780.771 554.356
lowerback 3.3288 1.55452 8.02479
upperback -11.4904 3.78709 0.882349
thorax -14.1514 1.25808 -4.13064
lowerneck 3.21454 -4.14252 -11.18
upperneck 4.66998 -5.89872 6.24312
head 1.52744 -3.05355 4.02769
rclavicle -9.80754e-014 -4.00551e-014
rhumerus -49.734 14.626 -109.114
rradius 88.9614
rwrist -0.807257
rhand -4.20755 65.8207
rfingers 7.12502
rthumb 21.5546 397
lclavicle -9.80754e-014 -4.00551e-014
lhumerus -12.8158 -12.1925 99.0101
lradius 74.2559
lwrist -11.3256
lhand -23.8175 41.3962
lfingers 7.12502
lthumb 2.65358 791.359
rfemur 2.65054 -16.2954 27.7046
rtibia 13.4384
rfoot -11.6314 -17.9361
rtoes -29.2695
lfemur -46.7641 -1.3127 -16.4122
ltibia 51.2493
lfoot -25.418 -5.8819
ltoes -33.8417
2342
root -5.78752 15.9402 10.1011 -874.896 778.645 551.726
lowerback 3.13882 1.5611 7.21185
upperback -11.1958 3.65342 0.890246
thorax -13.7066 1.30472 -3.6332
lowerneck 3.85682 -4.79831 -11.5924
upperneck 4.13551 -6.85121 6.34365
head 1.35169 -3.53688 4.14733
rclavicle -2.10401e-014 -4.47266e-016
rhumerus -49.8165 14.5627 -109.155
rradius 86.1687
rwrist -0.877358
rhand -2.94851 65.8663
rfingers 7.12502
rthumb 22.7634 397.189
lclavicle -2.10401e-014 -4.47266e-016
lhumerus -12.2079 -14.2297 99.8114
lradius 73.0265
lwrist -11.9127
lhand -23.0252 42.0859
lfingers 7.12502
lthumb 3.41878 792.038
rfemur 3.4683 -15.0678 27.6197
rtibia 14.8214
rfoot -11.9228 -20.9204
rtoes -28.2351
lfemur -45.5404 -1.37908 -18.5507
ltibia 50.8601
lfoot -23.8828 -2.50586
ltoes -28.043
2343
root -5.63572 15.903 10.0283 -876.378 776.637 551.122
lowerback 2.85319 1.70457 7.44839
upperback -10.8837 3.81778 0.947717
thorax -13.1256 1.39074 -3.69598
lowerneck 4.70322 -5.42056 -12.0136
upperneck 3.57206 -7.81294 7.20386
head 1.057 -4.01594 4.07532
rclavicle -1.62949e-014 -2.36181e-014
rhumerus -49.7157 13.9808 -109.061
rradius 82.8512
rwrist -0.870383
rhand -2.28222 65.7705
rfingers 7.12502
rthumb 23.4027 397.173
lclavicle -1.62949e-014 -2.36181e-014
lhumerus -11.6228 -16.0878 100.498
lradius 71.8839
lwrist -13.0277
lhand -21.3853 42.4375
lfingers 7.12502
lthumb 5.00229 792.358
rfemur 3.5262 -14.2462 28.281
rtibia 17.4016
rfoot -11.7557 -23.0207
rtoes -26.7042
lfemur -44.0935 -1.5273 -19.3128
ltibia 50.7677
lfoot -23.3501 -1.05101
ltoes -22.0763
2344
root -5.48641 15.8703 9.92728 -876.653 774.778 551.745
lowerback 2.31615 1.86875 8.57589
upperback -10.6301 4.08573 1.03891
thorax -12.4253 1.45399 -4.21172
lowerneck 5.43237 -5.97566 -12.2562
upperneck 3.1526 -8.64824 7.74072
head 0.930179 -4.44296 4.29062
rclavicle -3.58278e-014 -1.48716e-014
rhumerus -49.5482 13.1341 -108.928
rradius 78.9789
rwrist -0.848806
rhand -2.20397 65.7217
rfingers 7.12502
rthumb 23.4777 397.134
lclavicle -3.58278e-014 -1.48716e-014
lhumerus -11.2139 -17.4901 101.131
lradius 70.9927
lwrist -14.3019
lhand -20.1022 42.9375
lfingers 7.12502
lthumb 6.24111 792.826
rfemur 2.69238 -14.3604 29.2119
rtibia 21.1542
rfoot -10.7664 -23.9988
rtoes -23.2442
lfemur -42.5982 -2.20197 -18.9859
ltibia 50.8343
lfoot -24.0378 -0.946552
ltoes -20.2363
2345
root -5.358 15.8693 9.83659 -878.054 773.404 551.324
lowerback 2.41709 1.92754 8.88257
upperback -10.3087 4.14493 0.991964
thorax -12.0824 1.46207 -4.43173
lowerneck 6.00384 -6.47945 -12.2319
upperneck 2.83555 -9.37677 7.93214
head 0.826537 -4.81315 4.35699
rclavicle -1.58966e-014 1.79155e-014
rhumerus -49.2452 12.4128 -108.71
rradius 74.6233
rwrist -0.68555
rhand -2.87692 66.0207
rfingers 7.12502
rthumb 22.8321 397.352
lclavicle -1.58966e-014 1.79155e-014
lhumerus -10.9557 -18.4711 101.701
lradius 70.4887
lwrist -15.0718
lhand -18.4055 42.1555
lfingers 7.12502
lthumb 7.87893 791.989
rfemur 1.17609 -15.0033 29.1633
rtibia 26.1728
rfoot -8.56393 -24.5513
rtoes -18.5814
lfemur -40.8409 -3.73052 -18.8255
ltibia 50.7539
lfoot -24.2639 -1.12542
ltoes -17.81
2346
root -5.24275 15.8826 9.75693 -880.24 772.508 550.264
lowerback 3.20859 1.94385 8.64831
upperback -9.96221 4.13076 0.791349
thorax -12.1524 1.443 -4.55187
lowerneck 6.41518 -6.90706 -12.1193
upperneck 2.71609 -9.98079 8.06207
head 0.788259 -5.11926 4.3852
rclavicle 7.78549e-014 1.11413e-014
rhumerus -48.9724 11.4945 -108.355
rradius 70.0196
rwrist -0.655684
rhand -3.35771 66.3445
rfingers 7.12502
rthumb 22.3706 397.62
lclavicle 7.78549e-014 1.11413e-014
lhumerus -11.0508 -19.2399 102.225
lradius 70.2825
lwrist -15.4753
lhand -17.9315 41.952
lfingers 7.12502
lthumb 8.33643 791.767
rfemur -0.862447 -15.715 28.3836
rtibia 32.2655
rfoot -5.03064 -24.8642
rtoes -10.4698
lfemur -38.8873 -5.54769 -18.8477
ltibia 50.4802
lfoot -24.3497 -1.8644
ltoes -10.1096
2347
root -5.13962 15.8641 9.69796 -883.115 772.114 548.208
lowerback 4.1805 2.03531 7.73065
upperback -9.51851 4.09272 0.258049
thorax -12.2227 1.44795 -4.6592
lowerneck 6.35771 -7.31286 -11.973
upperneck 2.64511 -10.5132 8.4843
head 0.844773 -5.38461 4.47645
rclavicle 9.00929e-014 -3.72721e-015
rhumerus -48.3706 9.89205 -107.671
rradius 65.2775
rwrist -0.265216
rhand -3.07831 66.7022
rfingers 7.12502
rthumb 22.6388 398.01
lclavicle 9.00929e-014 -3.72721e-015
lhumerus -11.1533 -20.1171 102.455
lradius 70.3363
lwrist -15.9114
lhand -18.3986 42.0587
lfingers 7.12502
lthumb 7.88559 791.892
rfemur -3.64308 -16.2198 26.7687
rtibia 39.2416
rfoot -2.15593 -24.9778
rtoes -5.2492
lfemur -36.911 -6.63729 -20.0223
ltibia 49.9639
lfoot -24.3698 -2.14009
ltoes -6.828
2348
root -5.04874 15.8367 9.65971 -886.646 771.963 545.25
lowerback 5.35742 2.14871 6.07593
upperback -8.98681 3.97288 -0.397207
thorax -12.358 1.47006 -4.4852
lowerneck 6.15496 -7.6772 -11.9406
upperneck 2.34734 -10.9828 9.06191
head 0.866944 -5.61761 4.63001
rclavicle -3.07247e-014 1.36167e-014
rhumerus -47.5591 7.59824 -106.384
rradius 60.3228
rwrist 0.670977
rhand -1.98981 66.8599
rfingers 7.12502
rthumb 23.6832 398.299
lclavicle -3.07247e-014 1.36167e-014
lhumerus -11.2082 -20.8895 102.637
lradius 70.6005
lwrist -16.3697
lhand -19.7547 42.4014
lfingers 7.12502
lthumb 6.57662 792.279
rfemur -6.78603 -16.3232 24.5411
rtibia 46.2874
rfoot -0.39843 -25.2695
rtoes -4.27197
lfemur -34.7534 -6.71495 -22.2054
ltibia 48.9897
lfoot -24.1519 -2.22377
ltoes -9.47757
